<svg width="31" height="21" viewBox="0 0 31 21" fill="none" xmlns="http://www.w3.org/2000/svg">
<path d="M15.6165 1C15.6165 1 6.47052 0.999998 4.16265 1.55616C2.96597 1.87397 1.94025 2.82739 1.59834 3.93972C1 6.08492 1 10.5342 1 10.5342C1 10.5342 1 14.9835 1.59834 17.0493C1.94025 18.2411 2.96597 19.115 4.16265 19.4328C6.47052 19.989 15.6165 19.989 15.6165 19.989C15.6165 19.989 24.7626 19.989 27.0704 19.4328C28.3526 19.115 29.2928 18.2411 29.6347 17.0493C30.2331 14.9041 30.2331 10.5342 30.2331 10.5342C30.2331 10.5342 30.2331 6.08492 29.6347 3.93972C29.2928 2.74794 28.3526 1.87397 27.0704 1.55616C24.7626 0.999998 15.6165 1 15.6165 1ZM12.7103 6.48219L20.3178 10.5342L12.7103 14.5863V6.48219Z" stroke="black" stroke-width="1.25"/>
</svg>
